# xmcd CD database file
#
# Track frame offsets:
#	150
#	27810
#	47679
#	67020
#	104903
#	127616
#	151189
#	182999
#
# Disc length: 2785 seconds
#
# Revision: 2
# Processed by: cddbd v1.5.2PL0 Copyright (c) Steve Scherf et al.
# Submitted via: Feurio! 1.68 - http://www.feurio.com
#
DISCID=660adf08
DTITLE=Joan Osborne - Roskilde 1996
DYEAR=1900
DGENRE=
TTITLE0=Pensacola
TTITLE1=Right Hand Man
TTITLE2=Century
TTITLE3=Dracula Moon
TTITLE4=St Teresa
TTITLE5=One Of Us
TTITLE6=Crazy Baby
TTITLE7=Ladder
EXTD=
EXTT0=
EXTT1=
EXTT2=
EXTT3=
EXTT4=
EXTT5=
EXTT6=
EXTT7=
PLAYORDER=
